<?xml version="1.0" encoding="UTF-8" standalone="no"?>
<svg width="126px" height="104px" viewBox="0 0 126 104" version="1.1" xmlns="http://www.w3.org/2000/svg" xmlns:xlink="http://www.w3.org/1999/xlink">
    <!-- Generator: Sketch 47.1 (45422) - http://www.bohemiancoding.com/sketch -->
    <title>limpiezas-generales</title>
    <desc>Created with Sketch.</desc>
    <defs></defs>
    <g id="Welcome" stroke="none" stroke-width="1" fill="none" fill-rule="evenodd">
        <g id="Desktop-HD" transform="translate(-1108.000000, -280.000000)" fill-rule="nonzero" fill="#000000">
            <g id="limpiezas-generales" transform="translate(1108.000000, 280.000000)">
                <path d="M60.2568889,17.1111475 C57.9811111,20.424089 38,49.8360122 38,62.398949 C38,75.9623284 48.9923333,87 62.5,87 C76.0076667,87 87,75.9623284 87,62.398949 C87,49.8360122 67.0188889,20.424089 64.7431111,17.1111475 C63.7195556,15.6296175 61.2804444,15.6296175 60.2568889,17.1111475 Z M62.5,76.0661995 C54.9975556,76.0661995 48.8888889,69.9323375 48.8888889,62.398949 C48.8888889,60.8900845 50.1084444,59.6654989 51.6111111,59.6654989 C53.1137778,59.6654989 54.3333333,60.8900845 54.3333333,62.398949 C54.3333333,66.9200755 57.9974444,70.5992993 62.5,70.5992993 C64.0026667,70.5992993 65.2222222,71.823885 65.2222222,73.3327494 C65.2222222,74.8416139 64.0026667,76.0661995 62.5,76.0661995 Z" id="XMLID_92_"></path>
                <path d="M124.778828,38.7755789 C123.51334,37.9381053 121.809588,38.2774737 120.982364,39.5364211 L114.874055,48.6884211 C113.153868,21.5608421 90.5777796,0 63,0 C36.7096217,0 14.9662353,19.6012632 11.492991,44.9334737 C11.4710777,44.9608421 11.4327296,44.9772632 11.4162947,45.0101053 L0.459687813,61.4311579 C-0.378492615,62.6901053 -0.0388378013,64.3869474 1.22117199,65.2244211 C1.68682779,65.5364211 2.21274492,65.6842105 2.73866205,65.6842105 C3.62614721,65.6842105 4.49171915,65.2572632 5.02311459,64.4635789 L11.1314229,55.3115789 C12.8461319,82.4391579 35.4222204,104 63,104 C89.2903783,104 111.033765,84.3987368 114.507009,59.0665263 C114.528922,59.0391579 114.56727,59.0227368 114.583705,58.9898947 L125.540312,42.5688421 C126.378493,41.3098947 126.038838,39.6130526 124.778828,38.7755789 Z M63,98.5263158 C37.7285862,98.5263158 17.1356435,78.2955789 16.494682,53.1932632 L25.4517082,62.1427368 C26.5199773,63.2101053 28.2565995,63.2101053 29.3248687,62.1427368 C30.3931379,61.0753684 30.3931379,59.3402105 29.3248687,58.2728421 L16.8891199,45.8475789 C19.9186217,23.0989474 39.4159036,5.47368421 63,5.47368421 C88.2714138,5.47368421 108.864356,25.7044211 109.505318,50.8067368 L100.548292,41.8572632 C99.4800227,40.7898947 97.7434005,40.7898947 96.6751313,41.8572632 C95.6068621,42.9246316 95.6068621,44.6597895 96.6751313,45.7271579 L109.11088,58.1524211 C106.081378,80.9010526 86.5840964,98.5263158 63,98.5263158 Z" id="XMLID_175_"></path>
            </g>
        </g>
    </g>
</svg>